<?xml version="1.0" encoding="UTF-8"?>
<svg viewBox="0 0 481 588" xmlns="http://www.w3.org/2000/svg">
 <g transform="translate(481,0) scale(-1,1)">
  <path d="m0,.36218h481v588h-481z" fill="#fff"/>
  <path d="m371.29 581.73c0.51454-10.707 0.7327-28.429 1.2071-36.864 0.7864-13.982-0.11065-55.943-1.5-61.5-24.301-21.784-54.131-40-89-40-36.67 3.5954-69.33 14.161-97 33.05-7.9077 5.2718 0.43422 22.313 5 33.95 5.5468 11.612 9.8654 26.484 12.414 36.314 2.4732 9.5374 5.0445 33.521 5.5858 35.686" fill="#ffffff" fill-rule="evenodd" stroke="#000"/>
  <path d="m267 520.36c-8.3857 1.9835-18.286 4.3216-25 6-8.1315 0.52205-16.215 1.0008-24-2-6.4491-3.5105-15.528-7.0523-24-8-10.878-4.2185-21.127-9.809-30-18-13.753-7.7884-18.582-22.767-27-35-10.461-13.399-18.774-28.082-29.5-41.5-4.6893-6.2537-11.724-19.012-21.5-33.5-8.3914-12.266-18.788-34.213-21.5-42.5-2.3518-5.1229-8.5097-20.124-12.5-29.5-4.2369-8.4476-11.19-21.259-16-29-4.4034-7.0863-4-25.085-4-32 1.1667-9.1667 8.7274-9.2169 10.5-9.5 5.4098-0.86392 18.573-2.4819 23.5 1.5 16.708 5.2998 24.229 16.171 32 32 2.5422 5.0845 6.9846 20.985 11 25 13.821 13.136 19.446 24.303 24.5 31.5 3.3786 5.8786 10.572 10.289 15.5 11.5 5 2.3333 9.7098-5.944 12-8.5 5.6498-6.3054 6.9027-13.079 7-21 0.05695-4.6346 0.33731-12.236 1-17.5 1.2885-10.235 0.77693-17.385 1-24.5 0.25718-8.2035-5-18.445-5-28.5-2.0807-7.5966-1.2277-24.597-1-31 0.34013-9.5652-1-25.555-1.5-33-0.46246-6.8865-4.1699-23.896-4.5-33-0.383-10.564-3.668-29.03-4-40-0.20736-6.8516 0.91806-18.85 1.5-25 0.61172-6.4648 1.0485-17.797 1-25.5-0.02998-4.7584 3.3482-12.393 8-16 6.6616-7.1616 20.058-11.471 28.5-5 11.314 8.1864 10.176 16.194 12.5 21 3.6165 7.4792 2.6667 16.833 3.5 24.5 0.62511 7.912 1.428 15.54 0 28.5 0 5.6969 0.53925 18.06 1 25.5 0.5 8.0741 2.9396 24.11 4 30 1.5874 8.8168 3.5 24.394 3 32.5-0.66107 10.717 2.1605 22.299 3 29.5 0.88348 7.5782 6.7997 18.957 12 23.5 3.9953 3.4907 11.5-5.2751 11.5-17-1.0321-17.064 2.5444-36.374 2-43.5-0.48345-6.3287 0.5-13.667 0.5-15-0.80845-3.2338 0-6.6667 0-10 0-7.2433-2.6391-16.532-2-26 0.39276-5.8188-0.59352-21.626-1-30 0-21.785-0.55966-9.9349-0.5-19.5 0.0426-6.3296 1.9005-19.102 3-23.5 0.31511-10.24 2.9599-20.96 5-28 3.2471-9.0115 11.557-22.293 23.5-23 16.575 0.79857 20.309 7.5239 21 17.5 0.27134 3.9147 1.3333 16.333 2 20 0.25629 5.4748 1.1612 18.152 1.5 25 0.40611 8.2084 2.5224 20.265 3 27.5 0.27737 4.2019-1.4259 15.858-1 24-1.8968 8.2936 0.5 20.272 0.5 29.5v28.5c0 12.284-3.1279 22.763-1 33 0.8945 4.3034 1.929 16.726 6.5 17.5 7.6501 1.2956 15.331-12.219 17.5-34.5 1.3287-14.185 4-28.478 4-40-1.6382-6.5528 4.2204-26.788 6-33.5 2.822-10.644 4.2529-22.989 7-31-1.2848-12.498 3.2936-25.142 5-37.5 2.5-9.1377 5.2723-19.272 12-22 6.5-5.714 13.833-3.3333 18-1.5 7 5.2503 9.5675 12.745 11.5 20.5 1.593 6.3926-0.16667 17.667-1 23.5 0.00714 8.0286 0.61203 17.841 0 27-0.60167 9.0042-3 19.774-3 27 0.10894 9.9777-1.5 25.274-1.5 37-2.2302 14.719-2.9985 28.93-6 43.5-2.0629 9.6936-7.4257 23.234-7.5 34 0 9.2677-4.5979 21.304 7.5 23 7 8.3697 16.35-17.314 20.5-25 4.8088-11.42 11.422-28.99 14-37 2.8494-7.7549 9.1981-18.637 11.5-26 6.0241-12.048 8.6699-22.393 11-30.5 3.9666-7.9332 11.518-14.63 17-15.5 7.3317-1.1634 13.347 4.8873 18 12 3.0127 7.9747-0.39734 20.309-2 32-3.0496 15.168-6.9805 28.585-10.429 37.308-2.4839 6.2478-8.7426 19.989-11.571 28.228-3.3463 8.1068-7.2239 18.917-10.414 24.879-3.5061 6.5518-9.8826 15.883-12.086 24.586-3.1409 12.563-3.5 23.312-3.5 33 0 6.2069-2 11.745-2 20 0.77095 10.244-3.2419 19.772-2 30 0.64676 2.587 0.5 10.333-0.5 17 0.82302 9.7921-3.8891 22.556-5.5 29-1.9359 7.7434-7 25.126-7 28.5-8.9592 16.43-9.8409 28.182-15.5 36-4.8501 6.2001-9.819 15.239-15.5 19.5-4.6811 3.5108-9.7098 7.8549-14 10-8.0076 4.389-17 8.7576-31 10-9.606-0.87353-20.683-5.1682-27-6-9.5188-4.4845-20.631-7.4339-31-8z" fill="#ffffff" fill-rule="evenodd" stroke="#000"/>
  <path d="m196 269.36c14.46-5.1406 34.245-14.227 45.5-17 12.09-2 25.226-5.1129 31.5-7 14.431-2.1699 30.28-6.2445 43-2 11.306 2.0969 24.952 10.881 32.5 14 6.9137 3.7932 17.036 13.584 23.5 17.5 8.2873 5.021 17.654 14.116 21.5 17" fill="none" stroke="#000"/>
  <path d="m220.5 288.36c9.7703 7.2703 24.237 15 31.5 18 4.9475 2.0435 20.606 6.8031 27 9.5 6.8336 3.5 21.493 3.7262 29 6.5 13.973 2.918 20.99 4.4264 34 10 14.25 4.5999 27.426 3.3523 37 9" fill="none" stroke="#000"/>
  <path d="m204 312.36c6.6552-0.36933 21.011 12.021 32 21 8.6 9.3131 21.211 25.418 26.5 35 4.5321 9.0642 10.981 23.793 13.5 33.5 2.5835 9.9538 6.9979 25.745 8 38.5 0.99549 12.671 4.7252 30.901 4 42" fill="none" stroke="#000"/>
  <path d="m110.5 306.86c-2.9114 2.2521-5.7362 4.9359-8.4137 7.5892-2.893 2.8669-5.614 5.6982-8.0863 7.9108" fill="none" stroke="#000"/>
  <path d="m174 182.36c3.926-4.5091 16.181-7.5 27-7.5" fill="none" stroke="#000"/>
  <path d="m169.5 111.86c7.8549-4.0371 17.939-4.4138 26.582-3.043 2.4495 0.3885 4.7833 0.91734 6.9179 1.543" fill="none" stroke="#000"/>
  <path d="m258.5 99.362c5.0771-1.105 12.431-1.8652 19.007-1.6764 4.8131 0.13819 9.2099 0.78471 11.993 2.1764" fill="none" stroke="#000"/>
  <path d="m258 158.36c5.8698-3.0924 13.123-3.2772 19.165-2.3642 3.5311 0.53356 6.6487 1.442 8.835 2.3642" fill="none" stroke="#000"/>
  <path d="m349.5 101.86c4.0908 0.93148 8.9396 0.3954 13.48 0.26954 4.2273-0.11719 8.1874 0.12119 11.02 2.2305" fill="none" stroke="#000"/>
  <path d="m338 167.36c7.9777 1.9554 20.045 1.0223 28 5" fill="none" stroke="#000"/>
  <path d="m432 189.36c0.00147 0.00293 14.711 1.4967 19.5 9" fill="none" stroke="#000"/>
  <path d="m414 230.36c3.3186-0.17267 7.7912 0.77891 11.747 2.3801 3.5959 1.4554 6.7651 3.4476 8.2528 5.6199" fill="none" stroke="#000"/>
 </g>
</svg>
